<?xml version="1.0" standalone="no"?>
<!DOCTYPE svg PUBLIC "-//W3C//DTD SVG 20010904//EN"
 "http://www.w3.org/TR/2001/REC-SVG-20010904/DTD/svg10.dtd">
<svg version="1.0" xmlns="http://www.w3.org/2000/svg"
 width="512.000000pt" height="512.000000pt" viewBox="0 0 512.000000 512.000000"
 preserveAspectRatio="xMidYMid meet">
<metadata>
Created by potrace 1.11, written by Peter Selinger 2001-2013
</metadata>
<g transform="translate(0.000000,512.000000) scale(0.100000,-0.100000)"
fill="#000000" stroke="none">
<path d="M2220 4861 c-96 -31 -177 -108 -206 -193 -23 -72 -15 -172 19 -230
14 -24 138 -155 276 -292 l250 -250 117 110 c263 244 414 401 439 456 63 135
-2 306 -143 375 -47 23 -70 28 -127 27 -81 0 -136 -24 -224 -98 l-54 -45 -56
49 c-31 27 -78 59 -105 71 -53 23 -146 33 -186 20z"/>
<path d="M1535 3620 c-511 -58 -986 -352 -1234 -765 -100 -166 -173 -357 -212
-556 -33 -164 -34 -445 -1 -607 139 -689 663 -1185 1367 -1293 118 -18 370
-15 490 6 341 60 625 205 866 445 241 240 392 530 457 875 23 125 23 435 -1
560 -43 231 -144 476 -252 611 l-23 29 -83 -58 c-46 -31 -97 -68 -114 -81
l-30 -24 28 -48 c142 -246 201 -461 200 -724 -1 -420 -187 -791 -522 -1043
-151 -114 -302 -186 -486 -233 -79 -21 -133 -27 -260 -31 -187 -6 -291 8 -452
62 -568 190 -917 673 -915 1265 1 351 125 659 364 906 281 290 692 446 1071
405 231 -25 238 -25 277 1 41 28 172 177 165 188 -9 15 -175 70 -273 90 -115
23 -314 32 -427 20z"/>
<path d="M3295 3610 c-410 -47 -776 -233 -1038 -528 -190 -215 -330 -501 -383
-787 -29 -152 -26 -472 5 -615 27 -128 69 -255 115 -352 40 -84 145 -250 155
-244 62 39 216 149 216 154 0 4 -28 61 -61 127 -68 132 -112 247 -140 370 -27
114 -27 416 0 530 62 265 188 496 371 680 187 187 420 308 695 360 137 26 353
24 487 -4 413 -87 765 -361 942 -736 360 -759 -65 -1643 -891 -1851 -137 -35
-384 -44 -533 -21 -55 9 -113 13 -130 10 -34 -7 -223 -189 -209 -202 18 -15
121 -53 211 -76 332 -87 731 -40 1067 126 323 159 602 443 749 759 243 522
197 1121 -121 1595 -253 377 -648 626 -1102 695 -104 15 -310 20 -405 10z"/>
</g>
</svg>
